<svg width="200" height="200" viewBox="0 0 200 200" fill="none" xmlns="http://www.w3.org/2000/svg">
<path d="M200 100C200 155.205 155.205 200 100 200C44.795 200 0 155.205 0 100C0 44.795 44.795 0 100 0C155.205 0 200 44.795 200 100Z" fill="#FFF0CA"/>
<g style="mix-blend-mode:overlay" opacity="0.8">
<path d="M42.2714 28.9165C54.1536 17.1394 70.0317 9.04267 86.9612 6.20355C91.1673 5.57264 95.3734 5.04688 99.6847 5.04688C101.788 5.04688 103.996 5.15203 106.099 5.25718L109.359 5.36233L112.513 5.78294C121.136 6.72932 129.338 9.35813 137.224 12.8282L143.007 15.6673L148.581 19.0322C150.473 20.0837 152.051 21.4507 153.838 22.7125C155.521 23.9743 157.308 25.2361 158.886 26.7083L163.512 31.1247L167.823 35.9617C169.296 37.539 170.452 39.3266 171.714 41.009C172.976 42.7966 174.343 44.4791 175.289 46.3718C180.021 53.5222 183.071 61.6189 185.279 69.8208C187.382 78.0227 188.013 86.54 187.697 94.8471C187.697 95.478 187.172 95.8986 186.541 95.8986C186.015 95.8986 185.594 95.478 185.594 94.9522V94.8471L184.858 88.8534C184.753 87.8019 184.753 86.7504 184.543 85.804L183.912 82.7546C183.386 80.8618 183.176 78.8639 182.65 76.866L180.862 71.0826C180.652 70.1363 180.231 69.1899 179.811 68.2435L178.654 65.5095L177.603 62.6704C177.182 61.7241 176.656 60.8828 176.236 60.0416C175.289 58.254 174.448 56.4664 173.397 54.6788L170.242 49.6315C161.199 36.4875 148.686 25.8671 134.28 19.3476C127.024 16.0879 119.453 13.5642 111.567 12.6179L108.623 12.0921L105.678 11.8818L99.6847 11.5663C95.6889 11.4962 91.7281 11.7065 87.8024 12.1972C71.9244 14.09 56.5722 20.5043 43.6384 30.4938C43.2178 30.8092 42.4817 30.7041 42.1663 30.2835C41.8508 29.8629 41.8508 29.2319 42.2714 28.9165Z" fill="white"/>
</g>
<g style="mix-blend-mode:multiply" opacity="0.5">
<path d="M115.247 160.357C62.9863 160.357 20.6099 117.981 20.6099 65.7201C20.6099 53.7327 22.9232 42.2711 26.919 31.7559C10.3049 49.6318 0 73.6065 0 99.9998C0 155.205 44.795 200 100 200C152.366 200 195.268 159.726 199.579 108.517C183.912 139.222 152.05 160.357 115.247 160.357Z" fill="#FFE69F"/>
</g>
<g style="mix-blend-mode:multiply" opacity="0.5">
<path fill-rule="evenodd" clip-rule="evenodd" d="M138.381 41.01C146.267 50.7892 146.898 63.4075 139.748 69.1908C132.597 74.9742 120.4 71.8197 112.513 62.1456C104.522 52.3664 103.891 39.7481 111.041 33.9648C118.191 28.1814 130.494 31.3359 138.381 41.01ZM151.63 84.7534C158.255 92.8502 158.78 103.26 152.787 108.097C146.898 112.829 136.803 110.2 130.179 102.209C123.659 94.112 123.134 83.7019 129.022 78.8649C135.016 74.0279 145.11 76.6567 151.63 84.7534ZM167.929 64.1435C172.345 69.6114 172.66 76.6567 168.665 79.9164C164.669 83.1761 157.834 81.3885 153.418 75.9206C149.001 70.5578 148.686 63.5126 152.681 60.2529C156.677 56.9932 163.512 58.7807 167.929 64.1435Z" fill="#FFE69F"/>
</g>
</svg>
