<svg width="200" height="200" viewBox="0 0 200 200" fill="none" xmlns="http://www.w3.org/2000/svg">
<path d="M162.725 116.556L200 100L163.482 83.8221L178.619 68.0227L156.102 67.2658L170.766 29.2337L133.396 43.614L133.018 21.7597L116.556 37.2753L100 0L83.7275 36.5184L68.0227 21.3813L67.2659 43.8978L29.2337 29.2337L43.614 66.6036L21.7597 66.982L37.2753 83.4437L0 100L36.5184 116.272L21.3813 131.977L43.8978 132.734L29.2337 170.766L66.6036 156.386L66.982 178.24L83.4437 162.819L100 200L116.272 163.482L131.977 178.619L132.734 156.102L170.766 170.766L156.386 133.396L178.24 133.018L162.725 116.556Z" fill="#EBAB44"/>
<g style="mix-blend-mode:multiply" opacity="0.3">
<path d="M153.264 114.002L184.957 100L153.831 86.1877L166.793 72.8481L147.587 72.2804L160.076 39.9247L128.382 52.1291L128.004 33.586L114.002 46.7364L99.9999 15.043L86.1872 46.1688L72.8476 33.2076L72.2799 52.4129L39.9242 39.9247L52.1286 71.6182L33.5855 71.9966L46.736 85.9985L15.0425 100L46.1683 113.813L33.2071 127.153L52.4124 127.72L39.9242 160.076L71.6177 147.872L71.9961 166.415L85.998 153.264L99.9999 184.958L113.813 153.832L127.152 166.793L127.72 147.588L160.076 160.076L147.871 128.383L166.414 128.004L153.264 114.002Z" fill="#EBAB44"/>
</g>
<path d="M150.52 99.9998C150.52 127.909 127.909 150.52 100 150.52C72.0909 150.52 49.4797 127.909 49.4797 99.9998C49.4797 72.0907 72.0909 49.4795 100 49.4795C127.909 49.4795 150.52 72.0907 150.52 99.9998Z" fill="#F6DC44"/>
<g style="mix-blend-mode:overlay" opacity="0.5">
<path d="M63.8597 73.0372C67.5494 67.2661 73.0367 62.6304 79.2808 59.4137C85.5248 56.2917 92.6204 54.5887 99.6213 54.4941C106.717 54.4941 113.812 56.0079 120.151 59.1299C126.395 62.2519 131.977 66.7931 135.667 72.4695C136.234 73.321 136.045 74.3617 135.194 74.8347C134.626 75.2132 133.964 75.2132 133.396 74.8347C128.004 71.4289 122.611 68.6852 116.934 66.8877C111.353 65.0902 105.487 64.2387 99.7159 64.2387C93.9449 64.2387 88.0792 65.1848 82.4974 67.0769C76.9156 68.9691 71.5229 71.8073 66.2249 75.3078C65.4681 75.8754 64.4274 75.5916 63.8597 74.8347C63.4813 74.2671 63.4813 73.6048 63.8597 73.0372Z" fill="white"/>
</g>
<g style="mix-blend-mode:multiply" opacity="0.5">
<path d="M143.425 74.1719C144.56 78.1454 145.128 82.3081 145.128 86.66C145.128 111.542 124.976 131.788 100 131.788C75.0237 131.788 54.8724 111.542 54.8724 86.66C54.8724 82.3081 55.44 78.1454 56.5753 74.1719C52.1287 81.7405 49.4797 90.5389 49.4797 99.9997C49.4797 127.909 72.0909 150.52 100 150.52C127.909 150.52 150.52 127.909 150.52 99.9997C150.52 90.5389 147.871 81.7405 143.425 74.1719Z" fill="#F6DC44"/>
</g>
</svg>
